<svg xmlns="http://www.w3.org/2000/svg" viewBox="0 0 96.5 96.5"><defs><style>.cls-1,.cls-2{fill:#72236a;}.cls-2{fill-rule:evenodd;}</style></defs><g id="图层_2" data-name="图层 2"><g id="图层_1-2" data-name="图层 1"><path class="cls-1" d="M11.22,51l.39,3.27-.36,0c-.07-.12-.14-.26-.21-.41a4.68,4.68,0,0,1-.18-.48l-5.4.65.13,1.1,1.7.42,0,.39-.48.13-.6.14c-.21,0-.41.09-.62.12l-.52.09L4.39,50.4l.54,0,.62,0h.61l.5,0,0,.39-1.55.8.13,1.1,5.4-.64a4.43,4.43,0,0,1,.06-.51,2,2,0,0,1,.11-.45Z"/><path class="cls-1" d="M11.24,45.28l-.12,3h-.36a2.34,2.34,0,0,1-.25-.79l-5.42-.21a1.64,1.64,0,0,1-.12.4,2.55,2.55,0,0,1-.19.37l-.36,0,.12-3,.36,0a1.61,1.61,0,0,1,.16.38,2.25,2.25,0,0,1,.09.4l5.42.22a3.57,3.57,0,0,1,.12-.4,2.12,2.12,0,0,1,.18-.37Z"/><path class="cls-1" d="M11.7,41.78l-.48,2.31L10.86,44c0-.12-.07-.24-.1-.36a2.4,2.4,0,0,1,0-.37L5.18,39.61l.15-.69,6.54-1.09a1.7,1.7,0,0,1,.19-.35,1.48,1.48,0,0,1,.23-.3l.35.08L12,40.19l-.36-.07c0-.13-.05-.27-.07-.42a1.54,1.54,0,0,1,0-.42L10,39.51,9.53,41.6l1.37.86a2.52,2.52,0,0,1,.44-.76ZM9,41.24l.35-1.66-1.92.24H6.55v0l.79.37Z"/><path class="cls-1" d="M8.68,29.44l1-2.16.34.15a2.31,2.31,0,0,1,.07.47,3,3,0,0,1,0,.44l5.5,2.46-.33.74-5.84,1.1-.83,0v0l.73.24,3.65,1.63a2.43,2.43,0,0,1,.32-.33A2.65,2.65,0,0,1,13.6,34l.33.15-1,2.16-.33-.15c0-.13,0-.28,0-.43a2.36,2.36,0,0,1,0-.46L7.84,33.12l-.31.28a2.79,2.79,0,0,1-.32.23l-.34-.14.85-1.89,4.76-.89.93-.07v0l-.77-.29L9.74,29a3.61,3.61,0,0,1-.35.33A3.45,3.45,0,0,1,9,29.6Z"/><path class="cls-1" d="M19.53,24a3.13,3.13,0,0,1-.12.49c-.06.19-.12.38-.2.58s-.17.38-.26.56a3.22,3.22,0,0,1-.29.47,4.38,4.38,0,0,1-1,1.06,2.76,2.76,0,0,1-1.17.51,2.72,2.72,0,0,1-1.29-.08,4.41,4.41,0,0,1-1.36-.7,4,4,0,0,1-1.12-1.17,3,3,0,0,1-.41-1.26,3.31,3.31,0,0,1,.15-1.25A4.29,4.29,0,0,1,13,22.05a7.08,7.08,0,0,1,.77-.91,2.78,2.78,0,0,1,.72-.57l.29.23c.11.1.24.2.36.32l.38.36.32.36-.23.32-1.49-.43a1.11,1.11,0,0,0-.25.22l-.27.32a2.07,2.07,0,0,0-.32.71,1.72,1.72,0,0,0,0,.81,2.79,2.79,0,0,0,.45.87,4.8,4.8,0,0,0,1,.91,4.3,4.3,0,0,0,1,.56,3,3,0,0,0,1,.19,2.15,2.15,0,0,0,.85-.17,1.66,1.66,0,0,0,.66-.55,1.5,1.5,0,0,0,.15-.25,1.59,1.59,0,0,0,.12-.27.9.9,0,0,0,.07-.24.31.31,0,0,0,0-.16l-1.45-1.06a2.17,2.17,0,0,1-.36.32,1.87,1.87,0,0,1-.39.22L16.09,24l1.54-2.11.3.21a.9.9,0,0,1,0,.28,1.75,1.75,0,0,1-.12.37Z"/><path class="cls-1" d="M18.87,20.26a4.23,4.23,0,0,1-.77-1.17,3,3,0,0,1-.27-1.23,2.92,2.92,0,0,1,.27-1.22,3.81,3.81,0,0,1,2.07-1.85,2.78,2.78,0,0,1,1.24-.14,3.25,3.25,0,0,1,1.19.41,4.27,4.27,0,0,1,1.08.89,4.46,4.46,0,0,1,.77,1.17,3,3,0,0,1,.27,1.23,2.64,2.64,0,0,1-.27,1.22,3.83,3.83,0,0,1-2.06,1.85,2.8,2.8,0,0,1-1.24.14,3.21,3.21,0,0,1-1.2-.4A4.31,4.31,0,0,1,18.87,20.26Zm1.21-1.08a6.64,6.64,0,0,0,.83.78,3,3,0,0,0,.82.47,1.82,1.82,0,0,0,.79.09,1.3,1.3,0,0,0,.72-.36,1.11,1.11,0,0,0,.38-.62,1.66,1.66,0,0,0-.05-.76,3.19,3.19,0,0,0-.4-.84,7.85,7.85,0,0,0-.7-.9,6.08,6.08,0,0,0-.83-.79,3,3,0,0,0-.81-.48,1.53,1.53,0,0,0-.78-.09,1.29,1.29,0,0,0-.73.36,1.17,1.17,0,0,0-.4.65,1.42,1.42,0,0,0,0,.76,3.09,3.09,0,0,0,.42.83A7.6,7.6,0,0,0,20.08,19.18Z"/><path class="cls-1" d="M27.67,9.56,29.74,8.4l.18.32a2.82,2.82,0,0,1-.22.42,3.89,3.89,0,0,1-.28.35l3,5.25-.71.4-5.35-2.6-.69-.45h0l.45.63,2,3.48a1.93,1.93,0,0,1,.45-.07,1.76,1.76,0,0,1,.46,0l.18.31L27,17.61l-.18-.31a3.72,3.72,0,0,1,.22-.38c.09-.12.19-.24.29-.35L24.81,12l-.42,0H24l-.18-.32,1.81-1L30,12.84l.79.5,0,0-.45-.69L28.78,9.85a3.93,3.93,0,0,1-.48.06,3.24,3.24,0,0,1-.45,0Z"/><path class="cls-1" d="M39.66,11.63a2.79,2.79,0,0,1-.39.32c-.16.12-.33.23-.51.34s-.36.21-.54.3a4.64,4.64,0,0,1-.51.21,4.76,4.76,0,0,1-1.47.23A3,3,0,0,1,35,12.74a2.82,2.82,0,0,1-1-.84,4.28,4.28,0,0,1-.68-1.37,4,4,0,0,1-.19-1.61,3,3,0,0,1,.42-1.26,3.11,3.11,0,0,1,.87-.9,4,4,0,0,1,1.14-.56,9.16,9.16,0,0,1,1.16-.27,3.22,3.22,0,0,1,.92,0c0,.09.06.21.09.36a4.8,4.8,0,0,1,.1.47,4.34,4.34,0,0,1,.09.52,4.26,4.26,0,0,1,0,.47l-.37.12-1-1.23a1.31,1.31,0,0,0-.32,0,2.75,2.75,0,0,0-.41.11,1.81,1.81,0,0,0-.68.37,1.67,1.67,0,0,0-.46.66,2.38,2.38,0,0,0-.16,1,4.64,4.64,0,0,0,.23,1.31,4.5,4.5,0,0,0,.49,1.06,2.75,2.75,0,0,0,.66.73,2,2,0,0,0,.78.36,1.54,1.54,0,0,0,.85,0,1.36,1.36,0,0,0,.28-.11l.26-.14.2-.16a.44.44,0,0,0,.1-.12l-.53-1.72a2,2,0,0,1-.48.05A3.44,3.44,0,0,1,37,9.92l-.1-.35,2.49-.78.11.35a.82.82,0,0,1-.17.22,1.66,1.66,0,0,1-.31.22Z"/><path class="cls-1" d="M44.89,4.45h3v.37a2.08,2.08,0,0,1-.72.28V8.77a2.25,2.25,0,0,0,.11.79,1.28,1.28,0,0,0,.3.51,1.14,1.14,0,0,0,.49.28,2,2,0,0,0,.63.09,1.76,1.76,0,0,0,.58-.09,1.16,1.16,0,0,0,.46-.29,1.36,1.36,0,0,0,.3-.53,2.69,2.69,0,0,0,.11-.81V5.13A3.14,3.14,0,0,1,49.64,5a1.77,1.77,0,0,1-.39-.19V4.44h2.38V4.8a1.83,1.83,0,0,1-.39.21,3.17,3.17,0,0,1-.41.12v3.6a2.53,2.53,0,0,1-.65,1.87,2.55,2.55,0,0,1-1.82.64,3,3,0,0,1-2-.58,2.25,2.25,0,0,1-.7-1.84V5.09a2.13,2.13,0,0,1-.4-.1,2.32,2.32,0,0,1-.39-.18Z"/><path class="cls-1" d="M58.72,5.7,61,6.21,61,6.58a3,3,0,0,1-.45.16,2.5,2.5,0,0,1-.44.07l-1.3,5.88L58,12.52,55.73,7l-.22-.8h0L55.41,7l-.87,3.9a3,3,0,0,1,.39.24,3.6,3.6,0,0,1,.34.31l-.08.35-2.31-.51.08-.35a3.31,3.31,0,0,1,.41-.13,2.34,2.34,0,0,1,.45-.07L55,5.62l-.34-.25a2.56,2.56,0,0,1-.29-.27l.08-.36,2,.45,1.82,4.48.26.9h0l.13-.81.69-3.12A2.14,2.14,0,0,1,59,6.37a1.89,1.89,0,0,1-.32-.31Z"/><path class="cls-1" d="M63.78,14.53,61,13.38l.14-.33a2.48,2.48,0,0,1,.82,0l2.07-5a2.39,2.39,0,0,1-.33-.25,2.61,2.61,0,0,1-.28-.31l.14-.33,2.76,1.14-.14.34a2.82,2.82,0,0,1-.42,0,2.4,2.4,0,0,1-.4-.06l-2.07,5a3.14,3.14,0,0,1,.32.25,1.64,1.64,0,0,1,.29.3Z"/><path class="cls-1" d="M72.87,12.75a2.45,2.45,0,0,1-.31-.34l-.23-.32.2-.31,2.06,1.3-.2.3a1,1,0,0,1-.33,0,1.8,1.8,0,0,1-.4-.1l-5.1,4-.86-.41,1.21-6.55a3.85,3.85,0,0,1-.27-.3,2.23,2.23,0,0,1-.19-.32l.19-.3,2.7,1.7-.2.31-.39-.07-.42-.12-.88,3.91-.29.88h0l.67-.67Z"/><path class="cls-1" d="M80.2,18.19l-.66.6c-.24.2-.46.38-.69.54l-.28-.27L79,17.94l-1.3-1.24-1.62,1.7.85.8.81-.24.23.21c-.2.25-.43.51-.69.79a7.59,7.59,0,0,1-.78.74l-.22-.21.22-.84-.85-.8L74,20.65l1.35,1.29,1.2-.53.29.27-.23.35-.28.39c-.1.13-.21.25-.32.38s-.21.24-.3.34l-3.75-3.57.25-.27a3.44,3.44,0,0,1,.37.14,1.79,1.79,0,0,1,.39.2l3.74-3.92c-.07-.11-.15-.23-.22-.36a1.66,1.66,0,0,1-.15-.38l.25-.27Z"/><path class="cls-1" d="M78.6,25.79a1.72,1.72,0,0,1,.12.39c0,.13,0,.25.07.37l-.29.21-1.7-2.42.3-.21a2.6,2.6,0,0,1,.37.23,2.55,2.55,0,0,1,.3.26l4.44-3.12a3.06,3.06,0,0,1-.23-.81l.3-.21.59.83.25.36.32.4c.11.14.22.29.34.43l.32.43a4.07,4.07,0,0,1,.46.87,2.26,2.26,0,0,1,.14.83,1.5,1.5,0,0,1-.2.75,1.85,1.85,0,0,1-.59.63,1.76,1.76,0,0,1-1.12.38A1.92,1.92,0,0,1,81.72,26c-.18.44-.36.9-.53,1.37s-.33,1-.46,1.44v.55l-.27.19-.92-1.31,0-.52a6,6,0,0,1,.55-1.33c.24-.45.5-.88.76-1.27l-.45-.64ZM83.39,23a1.68,1.68,0,0,0-.32-.36l-2.19,1.54.33.46a1.15,1.15,0,0,0,.77.49,1.43,1.43,0,0,0,1-.32,1.64,1.64,0,0,0,.44-.43,1.05,1.05,0,0,0,.18-.46,1.08,1.08,0,0,0,0-.47A1.92,1.92,0,0,0,83.39,23Z"/><path class="cls-1" d="M82.33,31.63a1.18,1.18,0,0,0,0,.35,1.07,1.07,0,0,0,.12.51,1.36,1.36,0,0,0,.61.68.92.92,0,0,0,.84,0,.9.9,0,0,0,.45-.45,2.33,2.33,0,0,0,.16-.7c0-.26.05-.54.07-.83a4.24,4.24,0,0,1,.12-.87,2.47,2.47,0,0,1,.34-.78,1.74,1.74,0,0,1,.75-.58,1.62,1.62,0,0,1,.81-.17,1.53,1.53,0,0,1,.71.19,2.25,2.25,0,0,1,.6.52,3.23,3.23,0,0,1,.47.77,6.66,6.66,0,0,1,.37,1,4,4,0,0,1,.14.93l-.42.15-.47.15-.46.11-.36.07L87,32.35l1-.94a1.37,1.37,0,0,0,0-.35,2.59,2.59,0,0,0-.14-.45,1.12,1.12,0,0,0-.47-.53.71.71,0,0,0-.68,0,.9.9,0,0,0-.47.47,2.83,2.83,0,0,0-.19.71c0,.27,0,.56-.07.86a4.15,4.15,0,0,1-.12.88,2.43,2.43,0,0,1-.34.79,1.53,1.53,0,0,1-.71.57,1.81,1.81,0,0,1-1.62,0,3,3,0,0,1-1.25-1.52,5.77,5.77,0,0,1-.22-.58,4.85,4.85,0,0,1-.14-.58,3.63,3.63,0,0,1-.07-.51,1,1,0,0,1,0-.36,3,3,0,0,1,.45-.15l.5-.14.48-.11a4.18,4.18,0,0,1,.41-.08l.16.36Z"/><path class="cls-1" d="M84.37,39.68l-.8-2.88.35-.09a2.58,2.58,0,0,1,.48.67l5.22-1.46a1.86,1.86,0,0,1,0-.41,2.33,2.33,0,0,1,.07-.41L90,35l.8,2.88-.35.1a1.69,1.69,0,0,1-.27-.32,2.57,2.57,0,0,1-.2-.35l-5.23,1.45c0,.13,0,.27,0,.41a1.76,1.76,0,0,1-.07.41Z"/><path class="cls-1" d="M85.31,45.81l-.37-3.28.36,0a4.1,4.1,0,0,1,.21.42,2.48,2.48,0,0,1,.17.48l5.41-.61L91,41.68l-1.7-.43,0-.39.47-.13.6-.14.62-.11a4.59,4.59,0,0,1,.53-.08l.68,6.05-.54,0-.62,0h-.62c-.19,0-.36,0-.49,0l0-.39,1.56-.79-.12-1.1-5.41.6a4.43,4.43,0,0,1-.06.51,3,3,0,0,1-.11.45Z"/><path class="cls-1" d="M91.78,53.31l-.22,2.34-.36,0c0-.1-.09-.21-.14-.33a1.21,1.21,0,0,1-.07-.37l-3.07-2.15-2.16-.2a1,1,0,0,1-.14.37,2.63,2.63,0,0,1-.2.33l-.37,0,.28-2.93.36,0a2.8,2.8,0,0,1,.13.38,2,2,0,0,1,.07.43l2.15.2,3.43-1.63a2.37,2.37,0,0,1,.15-.4,3.4,3.4,0,0,1,.2-.34l.36,0-.29,3.13-.36,0c0-.1-.09-.2-.13-.32a1.65,1.65,0,0,1-.08-.42l-2.69,1.13L91.07,54a3.89,3.89,0,0,1,.16-.41c.07-.13.13-.24.19-.33Z"/><path class="cls-2" d="M48.25,0A48.25,48.25,0,1,0,96.5,48.25,48.34,48.34,0,0,0,48.25,0Zm0,94.63A46.38,46.38,0,1,1,94.63,48.25,46.47,46.47,0,0,1,48.25,94.63Z"/><path class="cls-2" d="M81.09,78.5a1.41,1.41,0,0,0,0-.64c-.06-.22,0-.31-.08-.46a1.27,1.27,0,0,0-.16-.23,1.88,1.88,0,0,0-.32-.32c-.2-.15-.4-.39-.54-.48a1,1,0,0,1-.21-.19,1.71,1.71,0,0,1-.2-.21.37.37,0,0,1-.08-.25.51.51,0,0,1,.17-.31c.09-.08,0-.17.21-.15s.1,0,.28-.11.1-.11.07-.2,0-.16,0-.22,0-.12.17-.23,0-.11.08-.25-.06-.16-.06-.22,0-.1-.17-.19-.16,0-.29-.09-.18,0-.29.15-.07.12-.1.25a1.25,1.25,0,0,1-.22.37,1,1,0,0,0-.14.28c-.06.15-.06.16-.26.34s-.08.14-.21.16-.15-.14-.2-.27,0-.15,0-.32a.58.58,0,0,1,0-.27,1.56,1.56,0,0,0,0-.24,2.79,2.79,0,0,0-.06-.33c0-.11-.14-.13-.22-.18s-.11,0-.2-.1-.07-.1-.11-.2,0-.11,0-.16a.92.92,0,0,1,.13-.18c.08-.06,0-.12.08-.19s.09-.14.14-.25,0-.09,0-.14,0-.15,0-.23a.63.63,0,0,0,0-.28c0-.13.06-.13.08-.2s0-.12,0-.25a.79.79,0,0,1,0-.25c0-.1,0-.11.07-.2a.23.23,0,0,0,0-.24.25.25,0,0,1,0-.21c0-.07,0-.07-.07-.11a1.22,1.22,0,0,0-.16-.14c-.06,0-.11,0-.21,0a.77.77,0,0,0-.3,0c-.21,0-.12.12-.28.27s-.1.26-.15.33a2,2,0,0,0-.12.34.41.41,0,0,1-.1.2.62.62,0,0,1-.16.17c-.08.06-.08,0-.12,0s0-.06-.09-.1a.31.31,0,0,1-.06-.16s0-.1,0-.21,0-.22,0-.28,0-.09,0-.24-.06-.26-.08-.3a.83.83,0,0,1,0-.27c0-.14.06-.15.06-.32s0-.17-.06-.29,0-.17,0-.28a2.37,2.37,0,0,0,0-.39c0-.15,0-.1,0-.32s-.06-.17,0-.32,0-.09,0-.2,0-.06-.1-.16-.07-.08-.21-.09-.13,0-.28,0-.08.1-.19.22,0,0-.13.18,0,.11-.2.23-.14.34-.19.49,0,.16,0,.26a1.49,1.49,0,0,0-.06.34c0,.15-.06.16-.08.25s-.08.1-.24.24-.06.21-.06.21a.22.22,0,0,0,.06.14c.06.06.06,0,.15.11s.15.08.07.18-.12.09-.21.15a.24.24,0,0,1-.27,0,.47.47,0,0,1-.13-.18,1.18,1.18,0,0,1,0-.25s.1-.14.15-.23a.32.32,0,0,0,0-.16,1.2,1.2,0,0,1,0-.23.2.2,0,0,0,0-.15c0-.08,0-.19,0-.25s.08-.21.08-.3.09-.16,0-.24a1,1,0,0,0-.18-.24,1.79,1.79,0,0,0-.29-.27c-.09-.07-.09-.06-.14-.07s-.11,0-.21,0a.56.56,0,0,1-.18-.11.63.63,0,0,0-.24-.13.22.22,0,0,1-.16,0c-.08-.06-.11,0-.23,0a.18.18,0,0,0-.1.21c0,.07,0,0,.06.09s0,0,0,.12a.45.45,0,0,0,.07.18c0,.06.16.34.22.41a.51.51,0,0,1,.15.22,1.06,1.06,0,0,1,0,.35,2.46,2.46,0,0,0,.08.39.71.71,0,0,0,.1.33.73.73,0,0,1,.14.45c0,.15,0,.14,0,.26a.62.62,0,0,1-.13.19.83.83,0,0,1-.23.15c-.09,0-.16.12-.27.23a.91.91,0,0,0-.2.21c-.05.08.09.15.12.18a.77.77,0,0,0,.2.07.85.85,0,0,0,.27,0c.13,0,.13.08.12.14s0,.1,0,.16,0,.17,0,.31.06.12,0,.32a.17.17,0,0,1-.29.1,1.59,1.59,0,0,1-.17-.27,1.43,1.43,0,0,0-.16-.27c-.07-.15-.1-.17-.12-.23a1.08,1.08,0,0,0-.11-.21,1.28,1.28,0,0,0-.12-.19,1.89,1.89,0,0,0-.12-.22c-.08-.12,0-.08-.1-.16a.19.19,0,0,0-.18-.09l-.26,0a.51.51,0,0,0-.18,0,.64.64,0,0,1-.17,0,.53.53,0,0,0-.24,0,2.24,2.24,0,0,1-.31.05c-.11,0-.13.08-.29.24S71,72,71,72a.22.22,0,0,0,0,.14s.07,0,.13,0,0,0,.16.06a.53.53,0,0,1,.18.12.33.33,0,0,1,.16.09.47.47,0,0,0,.16.12l.21.13c.06.06.14,0,.21.08a1.61,1.61,0,0,1,.23.22,1.49,1.49,0,0,1,.17.18c.06.06.17.11.25.19a1.64,1.64,0,0,1,.28.24,2.8,2.8,0,0,1,.22.31.63.63,0,0,0,.17.28,1.45,1.45,0,0,1,.22.24c.07.11.06.1,0,.22s0,0-.11.07-.11,0-.17,0a.83.83,0,0,1-.12-.16.74.74,0,0,0-.12-.25L73,74a2.07,2.07,0,0,0-.18-.23.93.93,0,0,0-.26-.15c-.12,0-.15,0-.28,0a.54.54,0,0,0-.41.18c-.11.13,0,.24.09.37a.74.74,0,0,0,.38.19,1.28,1.28,0,0,0,.3.1.3.3,0,0,1,.22.13l.19.25a.36.36,0,0,1,.06.29c0,.13,0,.14,0,.33s0,.28,0,.42.08.16.21.18.18,0,.32,0,.21-.15.31-.24a.9.9,0,0,0,.21-.29s.09-.29.1-.42-.06-.13-.1-.23-.1-.24-.12-.29l-.08-.28c0-.07,0-.16,0-.36s0-.15.07-.19,0,0-.06-.07-.11,0-.15,0,0,0,0-.16.09,0,.11,0l.11,0,.09-.1s0,0,.13,0h.17s.08,0,.19.08.07.13,0,.23a.67.67,0,0,0-.1.24.37.37,0,0,0,0,.3,1.86,1.86,0,0,0,.24.18c.09.06.23-.06.3-.15a1.48,1.48,0,0,0,.13-.31,1,1,0,0,1,.07-.37.28.28,0,0,1,.2-.16c.1,0,.06,0,.22,0a1.35,1.35,0,0,0,.34,0c.11,0,.11.12.07.22s0,.09,0,.18a2.86,2.86,0,0,1-.17.29c-.09.16-.13.16-.28.3l-.36.33a3.9,3.9,0,0,0-.28.29c-.12.14,0,.06-.06.22a.63.63,0,0,0,0,.29c0,.1,0,.13.16.17a2.17,2.17,0,0,0,.44,0c.12,0,.19-.08.38-.27a1,1,0,0,0,.34-.51,2,2,0,0,1,.21-.5.58.58,0,0,0,.11-.3c0-.08.06-.19.11-.33s-.08-.13.1-.31.1-.16.16-.18a.61.61,0,0,0,.24-.1.49.49,0,0,0,.21-.29.94.94,0,0,0,0-.4.62.62,0,0,1,0-.33.46.46,0,0,1,.15-.19c.1-.09.09,0,.18-.07s.14,0,.19.09.06,0,0,.16,0,.09,0,.24a1.08,1.08,0,0,1-.12.52c0,.11,0,.16-.13.32s-.09.31-.21.45,0,.13-.14.25,0,.09,0,.2a2,2,0,0,1,0,.23.56.56,0,0,1-.07.24.61.61,0,0,1-.2.24c-.16.16,0,.06-.13.2s-.09.15-.1.21.12.1.2.13.2-.11.32-.23.17-.14.27-.15.11.08.2.18,0,.07,0,.13,0,.34,0,.34-.13.07,0,.17a.54.54,0,0,0,.16.15c.06,0,0,0,.13.09s0,.1,0,.14,0,0-.06.11l-.09.14-.31.35c-.12.12-.08.14-.21.26s0,.08-.16.23-.08.16-.15.24a1,1,0,0,1-.18.18c-.13.1-.11.14-.17.22a2.38,2.38,0,0,0-.18.22.62.62,0,0,0-.09.23c0,.06.16.17.24.24s.16.07.34,0a.75.75,0,0,0,.34-.07c.06,0,.15,0,.3-.09s.26-.18.26-.33a.8.8,0,0,1,.13-.37c0-.08,0-.24.13-.42a2.28,2.28,0,0,1,.26-.45c.13-.17.15-.09.25-.06a.41.41,0,0,1,.2.12,1.09,1.09,0,0,0,.33.22,1.43,1.43,0,0,1,.23.15,1,1,0,0,1,.2.23c.07.1,0,.09,0,.18s-.06.08-.13.27a.37.37,0,0,1-.17.26c-.06,0-.25.17-.4.26s-.17.07-.29.14-.16.12-.13.17,0,0,.14,0,.28,0,.4,0a2.27,2.27,0,0,1,.45,0,3.1,3.1,0,0,1,.53,0,1.82,1.82,0,0,0,.72,0C81.23,78.87,81.05,78.61,81.09,78.5Zm-6.26-5.82-.22.23-.27.23a.2.2,0,0,1-.18,0s-.08,0-.09-.1,0-.17,0-.29-.06-.07,0-.23.13-.24.18-.3.1-.11.18-.07l.21.1c.06,0,.15.07.19.17S75,72.52,74.83,72.68Zm1.09-.37s-.07.23-.17.18-.1,0-.16,0l-.19-.16c-.09-.08-.2-.06-.19-.14s0-.11.13-.18.21-.1.16-.2l-.2-.28a.77.77,0,0,1-.12-.17s-.09-.1,0-.16.12,0,.18,0a.49.49,0,0,1,.15.12l.16.16.19.21c.06.07.05.14.06.26s0,.12,0,.21S76,72.26,75.92,72.31Zm.23-1c-.09-.1,0-.11-.12-.22a1.59,1.59,0,0,0-.2-.24c-.09-.09-.21-.07-.25-.09s-.13-.09-.13-.15,0,0,0-.12.06,0,.12-.17.07-.23.1-.3,0-.15.11-.1.07,0,.16.09l.14.14a.38.38,0,0,1,.12.2,2.13,2.13,0,0,0,.12.44.78.78,0,0,1,0,.34v.31c0,.11,0,.12,0,.14s-.11.06-.13,0A.45.45,0,0,0,76.15,71.26Zm.37,1.32a.48.48,0,0,1,0,.25s0,.17-.08.2a.16.16,0,0,1-.18,0c-.06-.07-.06,0-.07-.12a1.06,1.06,0,0,1,0-.22.35.35,0,0,0,0-.14s0,0,0-.1a.7.7,0,0,1,.09-.17c.06,0,0-.06.08-.09s.08,0,.1,0a.38.38,0,0,1,0,.18C76.55,72.45,76.47,72.45,76.52,72.58Z"/><path class="cls-2" d="M27.88,72.63a.63.63,0,0,0-.13-.18,1.43,1.43,0,0,1-.13-.16.74.74,0,0,0-.09-.12,2.13,2.13,0,0,0-.21-.22,1.36,1.36,0,0,0-.12-.12c-.05,0-.13-.13-.18-.18l-.19-.16a1.46,1.46,0,0,1-.19-.16.59.59,0,0,0-.28-.12c-.08,0-.14-.06-.23-.13a1.07,1.07,0,0,0-.29-.14c-.07,0-.25-.15-.35-.2s-.2-.08-.36-.15a1.46,1.46,0,0,1-.34-.26.89.89,0,0,0-.31-.11c-.1,0-.11-.12-.27-.3s-.16-.12-.28-.22-.25-.35-.36-.43-.23-.21-.35-.19-.13.17-.18.27a.41.41,0,0,0,0,.24,1.09,1.09,0,0,1-.09.46c-.07.17-.09.1-.19.14s-.15,0-.25,0a.83.83,0,0,0-.27.26l-.19.24a.7.7,0,0,1-.09.16c0,.05-.07.05-.16.13s-.27.12-.32.18l-.42.31c-.06,0-.32.19-.44.3s-.57.38-.62.41-.09,0-.2.06-.34-.07-.38-.07l-.7-.3c-.06,0-.26,0-.38-.09a8.07,8.07,0,0,0-.8-.37c-.09-.09-.39-.24-.52-.34l-.56-.41a5.23,5.23,0,0,0-.51-.31.31.31,0,0,0-.39,0,1.52,1.52,0,0,0-.25.49,2.94,2.94,0,0,0-.07.62,3.37,3.37,0,0,0,0,.48,1.91,1.91,0,0,0,.26.49s.15.14.28.29a.56.56,0,0,0,.43.14,3,3,0,0,1,.56.09,2.74,2.74,0,0,0,.58.07,1.48,1.48,0,0,1,.67.14c.18.1.26.17.23.21s-.34.26-.41.32-.48.26-.53.29a2.48,2.48,0,0,1-.38.17l-.59.22-.26.08a.68.68,0,0,0-.21,0l-.19.11c-.08,0-.07,0-.11,0a.16.16,0,0,0-.09,0,.69.69,0,0,1-.16,0,2.12,2.12,0,0,0-.37,0,3.53,3.53,0,0,1-.55-.1,5.18,5.18,0,0,1-.62-.12,2,2,0,0,0-.48-.18,1.43,1.43,0,0,1-.48-.35c-.16-.19-.16-.13-.2-.14s-.06-.08-.09-.13-.17-.2-.2-.25,0-.07,0-.12-.07,0-.13-.07-.09.05-.11.09a.57.57,0,0,0,.15.27c.08.1.08.24.17.38s.18.22.19.28a2.81,2.81,0,0,0,.27.4,4.24,4.24,0,0,0,.55.44,3.29,3.29,0,0,1,.49.26,1.53,1.53,0,0,0,.43.2l.49.09c.09,0,.46.09.58.1a1.81,1.81,0,0,1,.43.1,1.25,1.25,0,0,0,.47,0,.37.37,0,0,0,.14,0l.25-.09a2,2,0,0,0,.3-.1c.06,0,.27-.13.32-.14a3.32,3.32,0,0,0,.42-.23c.15-.09.17,0,.25-.1a2.21,2.21,0,0,0,.24-.14.75.75,0,0,1,.23-.07,1.9,1.9,0,0,0,.33-.16A2.51,2.51,0,0,1,19,74.5a4,4,0,0,0,.4-.15.47.47,0,0,1,.29,0,.09.09,0,0,1,.05.12s-.16.3-.19.36-.34.39-.4.45a1.76,1.76,0,0,0-.24.38,4.46,4.46,0,0,1-.31.52c-.07.09-.22.44-.25.48s-.22.37-.25.4l-.35.42a4.5,4.5,0,0,0-.2.51,2,2,0,0,0-.08.4,1.58,1.58,0,0,1,0,.4,1.53,1.53,0,0,0,0,.52,2,2,0,0,0,.26.58,1,1,0,0,0,.41.31,2,2,0,0,1,.59.29,3.63,3.63,0,0,0,.61.36l.29.19c.15.1.25.09.39.21a2.18,2.18,0,0,0,.43.22,4.22,4.22,0,0,1,.47.34c.09.07.08,0,.13.06s.1,0,.1,0a.58.58,0,0,0-.08-.1,1.87,1.87,0,0,0-.17-.23c-.08-.1-.35-.36-.38-.4l-.2-.27a2,2,0,0,1-.19-.28.74.74,0,0,1-.08-.22c0-.06-.11-.21-.12-.25a1.6,1.6,0,0,1-.13-.3,1.47,1.47,0,0,1,0-.29s-.06-.4-.07-.47a1.85,1.85,0,0,1,.07-.46.6.6,0,0,0,0-.35.92.92,0,0,0-.06-.23s.08-.28.09-.36,0-.13,0-.23,0-.19,0-.27,0-.31,0-.31a1.55,1.55,0,0,0,0-.18,1.24,1.24,0,0,1,0-.27,1.21,1.21,0,0,1,.1-.2.92.92,0,0,0,0-.3.55.55,0,0,1,.05-.22s.1-.22.11-.25.11-.21.15-.31a1.32,1.32,0,0,0,.08-.19c0-.06.2-.15.2-.15l.08-.16a.51.51,0,0,1,.07-.15.75.75,0,0,0,.19-.26.52.52,0,0,1,.1-.2,1.17,1.17,0,0,1,.25-.25.29.29,0,0,1,.22,0,4,4,0,0,1,.67.16l.39.15.23.1.44.17a1.67,1.67,0,0,1,.28.14,1.33,1.33,0,0,0,.19.14.29.29,0,0,0,.17,0,.58.58,0,0,1,.21.13c.09.08.09,0,.16.06a.12.12,0,0,0,.13,0l.09-.12s.07-.09.1-.15a.19.19,0,0,0,0-.19c0-.07-.06,0-.12-.06a.36.36,0,0,1-.14-.11c-.05,0-.17-.11-.2-.15a3.18,3.18,0,0,0-.26-.27c0-.06-.11-.14-.16-.22l-.19-.28a1.39,1.39,0,0,0-.21-.27.75.75,0,0,0-.13-.15s0-.08,0-.14a.27.27,0,0,1,0-.16.61.61,0,0,0,.05-.23.57.57,0,0,1,.1-.28.29.29,0,0,1,.08-.07s0,0,.12,0l.09,0,.16,0,.24,0a.66.66,0,0,1,.28.11c.05.06.25.08.33.09a.78.78,0,0,1,.32.14,2.35,2.35,0,0,0,.45.15h.08a.5.5,0,0,0,.34.07c.16,0,.46.19.51.19a5.53,5.53,0,0,0,.73.06,4.23,4.23,0,0,1,.5,0c.07,0,.18-.07.21-.09S27.9,72.69,27.88,72.63ZM23,73.09a1.16,1.16,0,0,0,0,.16c0,.09,0,.11-.05.13a.47.47,0,0,1-.1.1.17.17,0,0,1-.13,0l-.09,0-.07,0s0,0,0,0,0,0-.06-.06l0,0a.27.27,0,0,0-.08-.07s0,0,0,0a.32.32,0,0,1,0-.09s0-.07,0-.08a.21.21,0,0,1,0-.07s0,0,0,0l.06-.07h0s0,0,0,0l.06-.06.05,0,0,0s0,0,0,0,0,0,0,0l0,0,0,0h.15a.6.6,0,0,1,.16.14.12.12,0,0,1,0,.12A.75.75,0,0,0,23,73C23,73,23,73.05,23,73.09Z"/><path class="cls-2" d="M30.22,78.12h.27a1,1,0,0,1,.4,0,2.62,2.62,0,0,0,.73.09.74.74,0,0,0,.29-.33,3.82,3.82,0,0,1,.17-.36c.08-.15,0-.15-.07-.34a1.12,1.12,0,0,0-.16-.38,2.5,2.5,0,0,1-.25-.47,2.3,2.3,0,0,0-.5-.57c-.05,0-.12-.07-.13.14a2.17,2.17,0,0,1-.09.7,2.87,2.87,0,0,1-.23.63,6,6,0,0,1-.45.57,1.13,1.13,0,0,0-.15.29A.58.58,0,0,0,30.22,78.12Z"/><path class="cls-2" d="M36,79.4l-.22-.16a1.24,1.24,0,0,1-.34-.14c-.3-.17-.1,0-.25,0a3.62,3.62,0,0,1-.35-.13.57.57,0,0,1-.24-.2c0-.08,0-.09,0-.22s.11-.32.13-.41a4.54,4.54,0,0,0,.12-.5c0-.09-.13-.32-.14-.45a1,1,0,0,0-.54-.48c-.3-.14-.25,0-.33.06a1,1,0,0,0-.26.3,3.7,3.7,0,0,1-.34.37,3.31,3.31,0,0,0-.35.44c0,.06-.38.71-.55.79a.43.43,0,0,1-.23.07c-.17,0-.17,0-.4,0a.63.63,0,0,1-.35,0c-.07,0-.21,0-.24,0s.06.09.2.18.13.12.15.2,0,.21,0,.27a.64.64,0,0,1-.12.31,3.29,3.29,0,0,1-.61.67.29.29,0,0,1-.38-.14c-.12-.16,0-.18,0-.32a.43.43,0,0,0,0-.38c-.07-.16-.07-.1-.28-.29a1.12,1.12,0,0,1-.32-.65c0-.13.15-.3.11-.39s-.14,0-.27,0a.39.39,0,0,1-.13,0,.59.59,0,0,1-.18,0c-.08,0-.07,0-.18.1s-.08.09-.14.2,0,.17-.09.34l-.15.29c-.05.08-.15.34-.32.6s-.52.83-.64,1-.46.46-.61.64a5.8,5.8,0,0,1-.55.5c-.12.12-.36.17-.5.3s-.31.09-.43.19a1.82,1.82,0,0,1-.65.11s-.09,0-.12.06a2.72,2.72,0,0,1-.15.28c0,.07,0,.24-.08.32s-.11,0-.19.13,0,.16,0,.16.09.23.11.31.17.2.39.23a1.51,1.51,0,0,0,.63-.2c.16-.07.32-.16.41-.19a3.89,3.89,0,0,0,.5-.33.75.75,0,0,0,.22-.19,4.41,4.41,0,0,1,.37-.36,1.14,1.14,0,0,0,.22-.28c.07-.09.21-.17.34-.3a1.77,1.77,0,0,0,.24-.32,2.53,2.53,0,0,0,.28-.32,4,4,0,0,0,.31-.46,1.42,1.42,0,0,1,.36-.41,3.62,3.62,0,0,1,.54-.35c.19-.11.17,0,.51.09s.22.16.33.28.05.15.12.37,0,.26-.09.33a.84.84,0,0,1-.21.18c-.13.1-.13,0-.17.08s-.27,0-.31.12a.49.49,0,0,0,0,.29.54.54,0,0,1,0,.32,2.39,2.39,0,0,1-.27.47c-.12.15-.21.3-.32.41a2.79,2.79,0,0,0-.33.58c-.06.12,0,.14-.15.18s-.17,0-.28.07-.08,0-.26,0-.23,0-.37-.06a3.4,3.4,0,0,0-.54-.18c-.2,0-.2,0-.2,0a1.12,1.12,0,0,0,.05.21,3.89,3.89,0,0,1,.13.48.42.42,0,0,0,.18.29.81.81,0,0,0,.3.13c.09,0,.28,0,.35,0s.11,0,.21.14,0,.38-.1.49a.55.55,0,0,1-.26.19,1.88,1.88,0,0,0-.32.29,2.44,2.44,0,0,1-.48.29c-.1,0-.08.13-.09.18s0,.27-.06.42a.65.65,0,0,0,.19.49,1.17,1.17,0,0,0,.48.29.56.56,0,0,0,.42-.11,2.38,2.38,0,0,0,.38-.32,3.22,3.22,0,0,0,.27-.43,2.37,2.37,0,0,1,.15-.32l.19-.31L29,86c.09-.13.06-.11.13-.22a3.78,3.78,0,0,1,.24-.32c.11-.15.23-.15.35-.24s.28,0,.48-.12.37,0,.56.06.22,0,.4,0,.34.13.59.21a1.13,1.13,0,0,0,.43.1c.08,0,.44,0,.56,0a3.28,3.28,0,0,0,.49.06c.15,0,.15-.11.26-.28s0-.15-.22-.33-.13-.09-.17-.18a.61.61,0,0,0-.17-.27,1,1,0,0,1-.21-.22.76.76,0,0,1,0-.25.9.9,0,0,0-.12-.32,1.8,1.8,0,0,0-.17-.25c-.06-.1,0-.13-.18-.19s-.06.1-.08.16,0,.32,0,.32a2,2,0,0,1,0,.43c0,.08,0,.2,0,.29s0,0-.22.21a.61.61,0,0,1-.56,0l-.46-.1c-.2-.05-.24,0-.39-.08s-.05-.06-.05-.06,0-.15,0-.25.17-.22.19-.28a.28.28,0,0,0,0-.14,1.68,1.68,0,0,1-.23.06c-.08,0-.24.17-.4.27s-.12,0-.1-.09.18-.18.26-.25.18,0,.34-.2.21-.07.29-.17a1.34,1.34,0,0,1,.16-.19c.05,0,.05,0,.23-.33s.13-.08.29-.14l.24-.09a1.6,1.6,0,0,0,.27-.08,2.32,2.32,0,0,1,.3-.08c.11,0,.09-.08.11-.13s0-.06-.11-.06a.39.39,0,0,1-.2,0,.76.76,0,0,0-.28-.08.15.15,0,0,1-.15-.1s0,0,.05-.15.05,0,.13-.12.13-.1.24-.22a.52.52,0,0,1,.34-.18l.31-.06c.08,0,.18,0,.27,0a.46.46,0,0,1,.23,0c.08,0,.14.08.18.09s.11,0,.21,0a1.37,1.37,0,0,0,.19.05,2.07,2.07,0,0,1,.3.12.51.51,0,0,0,.25.06,1.68,1.68,0,0,1,.29.1.72.72,0,0,0,.35.06c.08,0,.27-.06.3-.14s-.1-.21-.15-.24l-.28-.14-.25-.07a1.45,1.45,0,0,0-.39-.06.61.61,0,0,1-.29-.08,2.4,2.4,0,0,1-.4-.16c-.18-.1-.19,0-.23-.07s-.09-.1-.09-.1,0,0,.11-.13a.78.78,0,0,1,.18-.11,2.58,2.58,0,0,1,.26-.08,1.15,1.15,0,0,1,.24-.07,1.79,1.79,0,0,1,.35-.11.51.51,0,0,0,.24,0,1,1,0,0,1,.34,0c.2,0,.17,0,.17,0l.17,0s.26-.14.35-.17.12-.1.23-.13a.56.56,0,0,0,.34-.28C36.18,79.42,36.05,79.45,36,79.4Zm-1.49.09a.3.3,0,0,1-.07.15s0,.12-.09.12-.17,0-.24,0a.64.64,0,0,0-.15,0s-.11.1-.22,0-.15,0-.17-.08a.2.2,0,0,1,0-.18.54.54,0,0,1,.1-.19s.06,0,.1,0,.06-.08.08-.1,0-.07,0-.07.05,0,.1,0,.09,0,.12,0,0,0,.1,0,.12,0,.17.09l.1.11A.14.14,0,0,1,34.5,79.49Z"/><path class="cls-2" d="M73.24,78.5a.75.75,0,0,1-.15-.28,1,1,0,0,1,0-.27.86.86,0,0,1,0-.28c0-.08,0-.09,0-.16s-.05-.07-.1-.15a.19.19,0,0,0-.12-.09.2.2,0,0,1-.07.09c-.06.06,0,0,0,.1s0,.17,0,.22,0,.08-.11.16-.11.09-.22,0-.06-.09-.13-.22,0-.17,0-.29a.76.76,0,0,0-.08-.33c-.07-.12-.06,0-.22-.17s-.22,0-.27,0,0,.12,0,.23a1.55,1.55,0,0,0,0,.4,2.12,2.12,0,0,1,0,.58.83.83,0,0,0,0,.38,1.25,1.25,0,0,1,0,.51c0,.19.14.29.23.35a.36.36,0,0,0,.33.1c.19,0,.25.09.34.16s0,0,.33,0,.16,0,.36-.17.07-.2.1-.41S73.39,78.71,73.24,78.5Z"/><path class="cls-2" d="M45.5,84.94c0-.11-.06-.12,0-.22a1.18,1.18,0,0,0-.1-.33,1.39,1.39,0,0,0-.25-.12,1.5,1.5,0,0,0-.43-.09.35.35,0,0,0-.18,0c-.08,0-.14,0-.17,0a1.32,1.32,0,0,0-.19.08.28.28,0,0,1-.23.05.74.74,0,0,0-.33,0,.46.46,0,0,1-.36.1c-.28,0-.1.07-.14.07l-.29,0c-.07,0-.16.08-.3.06a.69.69,0,0,0-.41.06c-.1.06-.19,0-.26-.06a1.21,1.21,0,0,1-.38-.21c-.25-.18-.26-.11-.47-.18a.73.73,0,0,0-.33-.06,1.79,1.79,0,0,0-.41.25c-.14.09-.11.2-.14.34s.12.35.2.42.18.22.28.33a1.59,1.59,0,0,1,.18.3.36.36,0,0,0,.33.22l.64,0a.73.73,0,0,0,.48-.12c.16-.08.19-.13.45-.26s.22-.07.32-.08.19-.14.32-.13,0,.15-.05.23a1.15,1.15,0,0,1-.19.22.69.69,0,0,1-.19.12l-.31.18a3.36,3.36,0,0,0-.49.35c-.15.11-.26.15-.3.24s-.27.22-.32.29-.4.17-.51.26-.25.1-.38.2-.53.25-.58.35-.4.15-.54.17A.92.92,0,0,1,39,88a3.54,3.54,0,0,0-.62-.09,3.32,3.32,0,0,1-.41,0,2.61,2.61,0,0,0-.34,0c-.09,0-.24,0-.47,0a.32.32,0,0,0-.33.31c0,.13,0,.1,0,.16a.66.66,0,0,1,.05.25.47.47,0,0,1,0,.21,1.53,1.53,0,0,0,0,.34c0,.09.15.16.25.21s.19.11.34.19.22.21.34.24l.44.13c.07,0,.11.11.21.14a.82.82,0,0,0,.3.07c.09,0,.27,0,.38,0a.46.46,0,0,0,.21-.08,1.35,1.35,0,0,0,.31-.24,1,1,0,0,1,.31-.15c.06,0,.07-.18.25-.19s.24-.15.37-.19l.55-.2a1.73,1.73,0,0,1,.37-.1,1.55,1.55,0,0,0,.34-.08,3.49,3.49,0,0,1,.5,0,1.72,1.72,0,0,1,.42-.08l.5,0c.18,0,.32.07.48.08a3.93,3.93,0,0,1,.46,0c.19,0,.15-.06.2-.14s.19-.11.22-.2.06-.23.08-.32,0-.12,0-.17a.32.32,0,0,0-.15-.19c-.11-.07,0,0-.14-.12s-.18-.14-.31-.19a.21.21,0,0,0-.23,0,1.56,1.56,0,0,1-.21.08c-.08,0-.19.16-.26.19s-.27,0-.35,0a.94.94,0,0,1-.4-.06c-.17,0-.11,0-.19-.09s0-.06,0-.13.13-.07.18-.09a.69.69,0,0,0,.21-.22c.12-.17.14-.11.24-.12s.21-.13.35-.25a.6.6,0,0,1,.28-.13c.1,0,.35-.24.5-.25s.22-.1.38-.16a3.86,3.86,0,0,1,.45-.23A1,1,0,0,0,45.4,86c.2-.11.18-.24.19-.38s0-.19,0-.43S45.51,85,45.5,84.94Z"/><path class="cls-2" d="M58.87,88.85c-.12-.18-.26-.19-.52-.21s-.21.06-.51.13l-.67.15c-.13,0-.06.11,0,.16s.19.13.3.22a1.14,1.14,0,0,1,.35.42,4.65,4.65,0,0,1,.15.59.42.42,0,0,1,0,.26c0,.07,0,.13.2.25s.1,0,.18,0,0,0,.36-.12.21-.05.35-.12a.44.44,0,0,0,.18-.14.49.49,0,0,0,.13-.38,2.38,2.38,0,0,0-.12-.6C59.13,89.05,59,89,58.87,88.85Z"/><path class="cls-2" d="M59.51,82.36c0-.14,0-.1-.1-.17a2,2,0,0,1-.16-.2c-.08-.1-.19-.08-.31-.06a1.51,1.51,0,0,0-.32.1c-.2.07-.18.15-.32.2a1.08,1.08,0,0,0-.32.25,2.56,2.56,0,0,1-.25.16,1.37,1.37,0,0,0-.24.19.74.74,0,0,1-.27.16c-.13.07-.08.08-.19.08s-.08,0-.1-.17.1-.17.13-.26.14-.14.23-.25.1-.09.24-.16a1.26,1.26,0,0,0,.35-.38c.09-.11.06-.15.06-.32a1.35,1.35,0,0,0-.09-.5c-.09-.25-.16-.18-.34-.25s-.11-.16-.4-.14-.18.09-.41.12-.35.39-.39.47-.07.14-.13.24a.62.62,0,0,1-.19.26,1,1,0,0,0-.25.4c0,.06-.12.13-.18.22s-.16.09-.29.14a.21.21,0,0,1-.19,0s-.12-.15-.14-.2a.75.75,0,0,1,0-.22c0-.13.13-.25.15-.37a1.11,1.11,0,0,0,0-.42.54.54,0,0,0-.35-.46.68.68,0,0,1-.33-.17.75.75,0,0,0-.42-.18c-.24,0-.14.06-.2.1s-.35.14-.38.18a.65.65,0,0,0,0,.32c0,.13,0,.23.08.42a2.24,2.24,0,0,0,.16.44,3.3,3.3,0,0,1,.07.5,4.12,4.12,0,0,0,.06.42c0,.07-.05.33-.05.44s-.08.07-.13.1l-.21.17-.16.11a.12.12,0,0,0,0,.09s0,0-.18,0a.38.38,0,0,1-.2,0l-.18-.1c-.08,0-.15,0-.23,0s-.06.06-.08.18a1.15,1.15,0,0,0,0,.26c0,.12,0,.17,0,.32a.67.67,0,0,0,0,.34.65.65,0,0,0,.24.34c.13.13.14.13.22.11s.31-.07.37-.19a2.09,2.09,0,0,1,.16-.4,1,1,0,0,0,.11-.41c0-.23.14-.18.19-.23a1.55,1.55,0,0,0,.14-.2.81.81,0,0,0,.07.14c.05.07.1.09.12.2s0,.1.06.23a4,4,0,0,1,.11.44c0,.07,0,.07-.11.21a1.64,1.64,0,0,1-.34.3c-.06,0-.27.25-.32.28a1.37,1.37,0,0,1-.3.2,2.92,2.92,0,0,0-.58.45l-.25.17s-.22.12-.29.18a2.34,2.34,0,0,1-.44.16,3.67,3.67,0,0,1-.43.09l-.45.11c-.22.06-.08.09-.1.17a1.71,1.71,0,0,0,0,.25.44.44,0,0,0,0,.26c0,.14.07.14.19.17s.17.1.32.26.25.11.39.15.25,0,.47.08.29-.21.53-.32.27-.33.42-.54a2.15,2.15,0,0,1,.4-.54c.15-.1.12-.19.21-.27a1.66,1.66,0,0,1,.27-.25c.11-.09.09,0,.17,0s.13.11.2.14.1.1.15.13a.63.63,0,0,0,.22.09c.08,0,.08,0,.23-.11s.1-.1.18-.18.05,0,.17,0,0,.12,0,.12a1.47,1.47,0,0,1,0,.17c0,.09,0,.06-.07.1a.24.24,0,0,1-.12.09l-.2.12a.8.8,0,0,0-.18.15,1.5,1.5,0,0,1-.25.21c-.13.1-.13.11-.15.2a.39.39,0,0,0,.06.23.35.35,0,0,0,.2.17.33.33,0,0,0,.24,0l.29-.08c.12,0,.09-.08.2-.13s.15.07.15.12,0,.13-.05.2-.11.09-.19.15-.14.07-.11.17,0,.1.15.09.15-.06.25,0a.23.23,0,0,1,.21.16c0,.12,0,.12,0,.16l-.11.1a.64.64,0,0,0-.1.13c0,.07-.23.11-.32.14a1.32,1.32,0,0,1-.31.05c-.05,0-.1.11-.1.11a.5.5,0,0,0-.07.25c0,.09,0,.31.08.37a.66.66,0,0,0,.28.12c.13,0,.12,0,.14.09a1,1,0,0,1,0,.35c0,.1-.28.31-.37.38l-.39.24a2.09,2.09,0,0,1-.35.13c-.08,0-.08,0-.15,0a1.38,1.38,0,0,0-.28-.11.3.3,0,0,0-.28,0c-.09,0-.06.07-.08.15s0,.13,0,.16,0,.16,0,.28.09.14.16.24a.58.58,0,0,1,.11.18l.16.07a.34.34,0,0,1,.23.18.23.23,0,0,0,.25.14s.26,0,.29-.1.13-.08.17-.11l.2-.21a2.59,2.59,0,0,1,.18-.21c.07-.07.05-.14.13-.28a.41.41,0,0,0,.07-.23c0-.06,0-.23.14-.27s.06,0,.1,0a.66.66,0,0,1,.15.07.64.64,0,0,1,.12.12s.12.13.17.17a1,1,0,0,1,.15.25c.06.16.13.16.15.25a.28.28,0,0,0,.21.2.88.88,0,0,0,.28,0c.08,0,.07-.1.12-.16a.87.87,0,0,1,.16-.17l.2-.18c.05-.07.23-.35.24-.38a1.63,1.63,0,0,0,0-.37c0-.06-.07-.41-.08-.54a2.63,2.63,0,0,0-.1-.3l-.09-.42a2.73,2.73,0,0,1-.05-.4.61.61,0,0,1,.06-.28c0-.07.06-.08.11-.19s.07,0,.13-.18a2.35,2.35,0,0,0,.1-.37,2.06,2.06,0,0,0,0-.21c0-.09,0-.12-.07-.12s-.06,0-.13.08,0,0-.19.08,0,0-.16,0-.08,0-.13-.18,0-.12.12-.22l.15-.16a.53.53,0,0,0,.1-.15c0-.06.06,0,.05-.18s0-.07-.09-.15a.31.31,0,0,1-.15-.17.33.33,0,0,1,0-.22.41.41,0,0,1,.12-.17.7.7,0,0,0,.11-.21.25.25,0,0,0,0-.19s-.1-.11-.15-.21-.14,0-.21,0-.07.1-.1.25-.1.08-.16.1,0,0-.08-.06a.22.22,0,0,1,0-.19,1.32,1.32,0,0,1,.13-.27,2.68,2.68,0,0,1,.33-.29,1.05,1.05,0,0,1,.39-.17c.14,0,.19,0,.27-.24s.17-.11.21-.22a.8.8,0,0,0-.06-.37.38.38,0,0,0-.11-.19.37.37,0,0,0-.21-.17c-.13,0-.3.07-.48.14a3.5,3.5,0,0,1-.38.18c-.25.08-.18.15-.2.24a2.33,2.33,0,0,0-.08.31,1.17,1.17,0,0,1,0,.29,1.59,1.59,0,0,1-.08.33,1.08,1.08,0,0,0-.14.32c0,.12-.14.14-.28.28s-.17.16-.19.1a2.4,2.4,0,0,1,0-.28c0-.08.06-.09.1-.15s0-.16.09-.27a.56.56,0,0,1,.1-.19.65.65,0,0,0,.09-.2.46.46,0,0,0,0-.2v0s0,0-.11,0-.12.11-.17.18-.1.12-.14.19-.13,0-.25.14-.09,0-.16-.05a.46.46,0,0,1-.08-.25c0-.08.1-.16.14-.2a1.86,1.86,0,0,1,.3-.2,1.54,1.54,0,0,0,.29-.25,2.2,2.2,0,0,1,.4-.23c.13,0,.09-.14.25-.18s.24-.17.4-.21A1.7,1.7,0,0,0,57,83.7c.08,0,.26,0,.36-.07l.32-.07a.79.79,0,0,0,.23-.06,4.62,4.62,0,0,0,.46-.1,3.35,3.35,0,0,0,.34-.11l.48-.2c.12-.06.2-.07.24-.2a.78.78,0,0,0,.07-.26C59.48,82.54,59.53,82.5,59.51,82.36ZM55.66,89.7a.68.68,0,0,1,.1.35,4.35,4.35,0,0,0,.1.45c0,.09.12.27-.12.33s-.25.15-.39.09-.19.13-.23-.13.08-.17.08-.34a1.18,1.18,0,0,1,0-.47c0-.13-.07-.15.14-.22S55.59,89.59,55.66,89.7Zm0-6a.29.29,0,0,1-.14.19c-.09.06-.16,0-.24.1a.53.53,0,0,0-.15.17.15.15,0,0,1-.15.06c-.06,0-.1,0-.11,0a1.09,1.09,0,0,1,0-.24c0-.13-.06-.18,0-.27a.66.66,0,0,0,.05-.23c0-.16.06-.18,0-.23s0,0,0-.07,0,0,.13.07.11.1.2.1.07,0,.18,0a.29.29,0,0,1,.16.11c.05,0,.08-.06.11.06A.29.29,0,0,1,55.62,83.66Zm.9-1.61c0,.11-.05.09-.05.19s0,.11-.08.2-.14.14-.16.19,0,.09-.06.13,0,.11-.11.11-.14,0-.16,0-.06-.09,0-.18.08-.11.08-.18,0-.07.06-.17.08-.06.13-.18.08-.13.12-.19,0-.08.08-.12.07-.11.12,0a.37.37,0,0,1,.07.12A.21.21,0,0,1,56.52,82.05Z"/><path class="cls-2" d="M71.86,82.59a1.05,1.05,0,0,0-.31.19c-.16.11-.08.1-.12.12a2,2,0,0,1-.26.18l-.27.16a.55.55,0,0,1-.25.11c-.13,0-.32,0-.39,0l-.19,0a1.87,1.87,0,0,0-.31,0c-.16,0-.13,0-.17,0s-.08-.08-.26-.11-.17,0-.33-.06a.91.91,0,0,0-.32-.09s-.12,0-.16,0l-.21-.1c-.17-.08-.18,0-.28,0a2.17,2.17,0,0,1-.26,0,1.3,1.3,0,0,0-.37.08.57.57,0,0,1-.25,0c-.1,0-.09,0-.12-.09a.78.78,0,0,1-.1-.29c0-.15.06-.17.11-.28s.11-.13.2-.2.16-.09.23-.15.07-.13.16-.25a1.76,1.76,0,0,0,.24-.3c.06-.13,0-.07.07-.18a2.3,2.3,0,0,1,.15-.23c.06-.08.15-.11.22-.21a.62.62,0,0,1,.18-.18.52.52,0,0,0,.19-.2c0-.1.24-.21.32-.32s0-.1.1-.17a1.1,1.1,0,0,1,.15-.16c.07-.08.12-.13.11-.2s0,0-.07-.13,0-.1,0-.15a1,1,0,0,1-.13-.17c0-.05-.1-.08-.18-.17A.45.45,0,0,0,68.7,79a.47.47,0,0,0-.16,0c-.1,0-.11,0-.26,0s-.08,0-.28,0-.1,0-.25,0-.2-.06-.25,0,0,.07,0,.13,0,.12.09.15.08,0,.13.15a2.53,2.53,0,0,1,.12.33c.06.11,0,.1-.08.23s0,.07-.11.2a.64.64,0,0,1-.21.26.51.51,0,0,0-.22.31c-.06.16-.07.13-.19.24s-.09.11-.15.2-.09.09-.25.19-.06,0-.16.06-.09,0-.14-.1a.2.2,0,0,1,0-.12c0-.06,0,0,0-.11a.83.83,0,0,0,0-.18l-.1-.25c0-.1-.1-.16-.11-.19a2.44,2.44,0,0,1-.14-.25.94.94,0,0,1-.11-.26s0-.15-.07-.23,0-.09,0-.17-.09-.14,0-.23a.62.62,0,0,0,0-.25s0,0,0-.08a.64.64,0,0,1-.12-.12c0-.08,0-.13-.09-.21s-.11-.18-.16-.27a.39.39,0,0,1,0-.22c0-.06,0-.09-.08-.14s0-.05-.11-.18,0,0-.11-.15-.09,0-.2-.11a.55.55,0,0,0-.31-.13.54.54,0,0,1-.19,0L64,77.38a1,1,0,0,0-.25-.06,1.39,1.39,0,0,0-.27,0c-.21,0-.19.11-.22.17l-.12.24a.47.47,0,0,0,.05.38l.15.21c0,.09.07.07.16.17a1,1,0,0,1,.15.29c0,.06,0,.09.08.18a1,1,0,0,0,.17.22c.05,0,.14.2.19.28l.23.36c.06.1.14.29.2.42s.21.37.26.47.07.09.13.19a2.74,2.74,0,0,1,.18.32c0,.07.09.18.18.33a1.26,1.26,0,0,1,.11.33,1.16,1.16,0,0,0,.14.27,1.64,1.64,0,0,1,.15.3c0,.11,0,.06,0,.15s0,0-.14.17a2,2,0,0,0-.19.28c-.07.09-.13.1-.21.24s-.08.06-.17.25a1.61,1.61,0,0,1-.25.35,1.06,1.06,0,0,0-.17.26c-.08.12,0,0-.15.17a.5.5,0,0,0-.16.22.9.9,0,0,1-.27.2l-.23.13c-.14.08-.08.07-.1.13s-.1.09-.12.15a.87.87,0,0,0,0,.26,1.45,1.45,0,0,1,0,.43.84.84,0,0,0,.14.44c.07.15.09.09.25.1h.35c.18,0,.18,0,.29,0s.15-.12.26-.28a.74.74,0,0,0,.13-.39c0-.1.09-.17.17-.29s0-.11,0-.24.05-.11.16-.27a2.73,2.73,0,0,1,.18-.26,2,2,0,0,0,.18-.33c.09-.14,0-.15.06-.25a.32.32,0,0,1,.14-.2c.08-.07.16,0,.19,0a1.39,1.39,0,0,1,.18.27,1.06,1.06,0,0,1,.1.28s0,.13,0,.2.09.32.13.43-.09.2-.06.29a3.5,3.5,0,0,1,0,.37,1,1,0,0,1-.16.36,3.86,3.86,0,0,0-.17.43,1.6,1.6,0,0,1-.22.41c-.07.08-.11.08-.18.15a2.22,2.22,0,0,1-.3.24c-.14.1-.3.18-.4.27a1.79,1.79,0,0,1-.28.2c-.12.07-.1,0-.08.1a.34.34,0,0,0,.1.16.71.71,0,0,0,.2.1.89.89,0,0,0,.29.08c.12,0,.1-.07.28,0s.12,0,.29-.06a1.33,1.33,0,0,0,.34-.18c.13-.1.16-.15.2-.16a.58.58,0,0,0,.2-.11c.07-.06,0-.08.09-.18s.08-.18.2-.29,0-.13.11-.22.08-.18.16-.34.14-.4.19-.49,0-.24,0-.38a1.82,1.82,0,0,0,.07-.44.64.64,0,0,1,0-.21,1.3,1.3,0,0,0,0-.37c0-.12,0-.29,0-.36s0-.08,0-.17,0-.09,0-.26a1,1,0,0,0,0-.23c0-.08-.07-.23,0-.3s.08,0,.16,0,.14.09.18.11a3.07,3.07,0,0,1,.28.2,1.79,1.79,0,0,0,.42.25,1.84,1.84,0,0,0,.28.15,1.06,1.06,0,0,1,.33.22,1.5,1.5,0,0,0,.33.24s.23.1.32.13a.71.71,0,0,1,.28.12.9.9,0,0,0,.32.13c.08,0,.31,0,.41.07s.28,0,.5,0,.42-.22.46-.3,0-.08.06-.2a1,1,0,0,1,.14-.24.41.41,0,0,0,.06-.25c0-.1.1-.12.1-.23a1.09,1.09,0,0,1,0-.32,1.34,1.34,0,0,0,.11-.37c0-.13.12-.23.1-.36a.3.3,0,0,0-.1-.2C72,82.48,72,82.55,71.86,82.59Z"/><path class="cls-2" d="M74.14,43.18a4.09,4.09,0,0,1-2.16,1,5.09,5.09,0,0,1-.55,0,3.82,3.82,0,0,1-4.05-3.81c0-2.92,3.19-4.5,5.86-3.42a48.44,48.44,0,0,0-6.8-15.8c-.5-.73-1-1.52-1.56-2.15-4.5,5.22-13.5,1.39-16.64-3.56-3.43,4.73-11.9,9-16.63,3.56-.51.63-1.06,1.42-1.56,2.15A48.4,48.4,0,0,0,23.27,37c2.65-1.08,5.85.5,5.85,3.42a3.82,3.82,0,0,1-4.05,3.81,4.9,4.9,0,0,1-.54,0,4.09,4.09,0,0,1-2.17-1c0,.27,0,.54-.05.8.08,16.07,11.2,29.54,25.92,34.91,14.73-5.16,25.89-19,26-34.91C74.18,43.72,74.16,43.45,74.14,43.18ZM48.24,76.47c-13.2-5.08-22.52-16.11-23.61-30a5.25,5.25,0,0,0,.56,0,6.36,6.36,0,0,0,6.38-6.31A6.57,6.57,0,0,0,26,34a44.6,44.6,0,0,1,6-12.08,14,14,0,0,0,11.39.25,16.08,16.08,0,0,0,4.82-3.11,16.13,16.13,0,0,0,4.83,3.11,14,14,0,0,0,11.4-.25,44.89,44.89,0,0,1,6,12.08,6.57,6.57,0,0,0-5.55,6.24,6.36,6.36,0,0,0,6.38,6.31,5.12,5.12,0,0,0,.56,0C70.78,60.36,61.45,71.39,48.24,76.47Z"/><path class="cls-1" d="M46.47,60.93a1.17,1.17,0,0,0-.85.41A2.41,2.41,0,0,0,45,62.49a1.47,1.47,0,0,0,0,1,.67.67,0,0,0,.66.37,1.83,1.83,0,0,0,.61-.11h0A1.35,1.35,0,0,0,47,63a2.3,2.3,0,0,0,.09-1.52C47,61.11,46.79,60.93,46.47,60.93Z"/><path class="cls-1" d="M62.54,40.39a9.21,9.21,0,0,1,5.05-8,41.79,41.79,0,0,0-4.07-8.07c-2.51,1.47-7,1.39-11.43-.46a21.38,21.38,0,0,1-3.84-2.11,26.51,26.51,0,0,1-3.84,2.11C40,25.67,35.49,25.75,33,24.28a41.79,41.79,0,0,0-4.07,8.07,9.23,9.23,0,0,1,5,8A8.56,8.56,0,0,1,27,48.55C29,59.72,37.72,70,47.9,74.09l.35.13c10.44-3.63,19.33-14.93,21.23-25.67A8.56,8.56,0,0,1,62.54,40.39ZM39.22,63.84a1.13,1.13,0,0,1-.32,0h-.12a1.43,1.43,0,0,1-.47-.14L38,63.53l-.33-.21a1,1,0,0,0-.32-.12.5.5,0,0,0-.38.1,1.76,1.76,0,0,0-.38.44l0,0-.26-.14,0,0a2.11,2.11,0,0,1,.22-.34,1.74,1.74,0,0,1,.31-.3,1.24,1.24,0,0,1,.39-.22.93.93,0,0,1,.46-.06,1.36,1.36,0,0,1,.47.14l.37.22.32.21a.68.68,0,0,0,.32.11.46.46,0,0,0,.39-.11,1.92,1.92,0,0,0,.36-.42h0l.26.15,0,0a2.94,2.94,0,0,1-.23.33,1.48,1.48,0,0,1-.3.31A1.53,1.53,0,0,1,39.22,63.84Zm2.8.71a.23.23,0,0,0,.1.12,2.52,2.52,0,0,0,.32.07,3.05,3.05,0,0,0,.45.05l-.13.46h-3l.12-.47.46,0,.37-.06a.49.49,0,0,0,.2-.11.58.58,0,0,0,.12-.25l.75-2.85h-1l.14-.52h.23A2.12,2.12,0,0,0,42,60.8a2.16,2.16,0,0,0,.58-.34.05.05,0,0,1,0,0h.47c-.06.19-.15.5-.22.75s-.13.46-.18.65L42,64.33A.41.41,0,0,0,42,64.55Zm6-1.53a5.18,5.18,0,0,1-.58,1.4,5.11,5.11,0,0,1-1,1.15,5.44,5.44,0,0,1-1.26.81,5.38,5.38,0,0,1-1.56.43l.15-.56.31-.06a3.77,3.77,0,0,0,2.49-2.07,3.4,3.4,0,0,1-.58.28,2.54,2.54,0,0,1-.83.14A1.29,1.29,0,0,1,44.11,64a1.67,1.67,0,0,1-.18-1.41,2.79,2.79,0,0,1,1-1.51,2.59,2.59,0,0,1,1.65-.62,1.49,1.49,0,0,1,1.4.71A2.49,2.49,0,0,1,48.07,63ZM46.5,39.61V57H36.22V53.45h6.86V39.59H39.72v9.66h-3.5V36.09H46.5V32.43H36.22v-3.5H60.28v3.5H50v3.66H60.28V49.25H56.79V39.59H53.43V53.45h6.85V57H50V39.61Zm4.1,24.94a.23.23,0,0,0,.1.12,2.65,2.65,0,0,0,.31.07,3.36,3.36,0,0,0,.45.05l-.12.46h-3l.12-.47.46,0,.37-.06a.4.4,0,0,0,.19-.11.42.42,0,0,0,.12-.25l.75-2.85h-1l.14-.52h.23a2,2,0,0,0,.82-.16,2.09,2.09,0,0,0,.59-.34.05.05,0,0,1,0,0h.46c0,.19-.15.5-.22.75s-.12.46-.17.65l-.63,2.5A.41.41,0,0,0,50.6,64.55ZM56.66,62a1.87,1.87,0,0,1-.24.58A1.69,1.69,0,0,1,56,63a3.9,3.9,0,0,1-.63.38l-1,.42-.77.34-.35.19H56.3l-.25.92H51.94s.19-.71.2-.72a3.86,3.86,0,0,1,.39-.3c.17-.11.36-.23.58-.35l.47-.26.61-.29c.24-.12.44-.22.58-.31a1.89,1.89,0,0,0,.39-.32,1.48,1.48,0,0,0,.23-.3,2.53,2.53,0,0,0,.19-.54.75.75,0,0,0-.07-.7.78.78,0,0,0-.6-.22,1.34,1.34,0,0,0-.51.11l-.07,0a.56.56,0,0,0-.33.51h0A1.65,1.65,0,0,1,54,62a.65.65,0,0,1-.23.33.83.83,0,0,1-.48.14.4.4,0,0,1-.36-.19.62.62,0,0,1,0-.45,1.43,1.43,0,0,1,.25-.49,2.64,2.64,0,0,1,.49-.44,2.58,2.58,0,0,1,.67-.31,2.38,2.38,0,0,1,.79-.13,1.89,1.89,0,0,1,1.33.41A1,1,0,0,1,56.66,62Zm3.87,1.35a1.48,1.48,0,0,1-.3.31,1.53,1.53,0,0,1-.41.23,1.13,1.13,0,0,1-.32,0h-.12a1.43,1.43,0,0,1-.47-.14l-.36-.21-.33-.21a1,1,0,0,0-.32-.12.5.5,0,0,0-.38.1,1.76,1.76,0,0,0-.38.44l0,0-.26-.14,0,0a2.11,2.11,0,0,1,.22-.34,1.74,1.74,0,0,1,.31-.3,1.24,1.24,0,0,1,.39-.22.93.93,0,0,1,.46-.06,1.36,1.36,0,0,1,.47.14l.37.22.32.21a.68.68,0,0,0,.32.11.46.46,0,0,0,.39-.11,1.92,1.92,0,0,0,.36-.42h0l.26.15,0,0A2.94,2.94,0,0,1,60.53,63.3Z"/></g></g></svg>